<svg xmlns="http://www.w3.org/2000/svg" width="65.625" height="75" viewBox="0 0 65.625 75">
  <path id="Icon_awesome-discord" data-name="Icon awesome-discord" d="M43.537,35.625a3.839,3.839,0,1,1-3.825-4.162A4,4,0,0,1,43.537,35.625ZM26.025,31.463a4.177,4.177,0,0,0,0,8.325,4,4,0,0,0,3.825-4.162A3.971,3.971,0,0,0,26.025,31.463Zm39.6-23.738V75c-9.447-8.349-6.426-5.585-17.4-15.787l1.987,6.937H7.688A7.706,7.706,0,0,1,0,58.425V7.725A7.706,7.706,0,0,1,7.688,0h50.25A7.706,7.706,0,0,1,65.625,7.725ZM54.937,43.275a50.218,50.218,0,0,0-5.4-21.863A18.544,18.544,0,0,0,39,17.475l-.525.6c6.375,1.95,9.337,4.763,9.337,4.763A31.863,31.863,0,0,0,19.8,21.75c-1.387.637-2.213,1.088-2.213,1.088s3.113-2.963,9.863-4.913l-.375-.45a18.544,18.544,0,0,0-10.537,3.938,50.218,50.218,0,0,0-5.4,21.863s3.15,5.437,11.438,5.7c0,0,1.387-1.687,2.513-3.112a11.663,11.663,0,0,1-6.563-4.425c.552.386,1.461.887,1.538.938a27.335,27.335,0,0,0,23.4,1.313,21.459,21.459,0,0,0,4.313-2.213S45.9,44.55,40.987,45.937c1.125,1.425,2.475,3.038,2.475,3.038C51.75,48.712,54.937,43.275,54.937,43.275Z" fill="#fff"/>
</svg>
