<?xml version="1.0" standalone="no"?>
<!DOCTYPE svg PUBLIC "-//W3C//DTD SVG 20010904//EN"
 "http://www.w3.org/TR/2001/REC-SVG-20010904/DTD/svg10.dtd">
<svg version="1.0" xmlns="http://www.w3.org/2000/svg"
 width="100.000000pt" height="100.000000pt" viewBox="0 0 100.000000 100.000000"
 preserveAspectRatio="xMidYMid meet">
<metadata>
Created by potrace 1.14, written by Peter Selinger 2001-2017
</metadata>
<g transform="translate(0.000000,100.000000) scale(0.100000,-0.100000)"
fill="#000000" stroke="none">
<path d="M220 763 c0 -5 10 -14 22 -22 21 -13 21 -13 -10 -38 -41 -31 -41 -63
-1 -105 l30 -33 -14 30 c-21 43 1 84 46 85 19 0 19 10 18 -219 -1 -140 -3
-156 -21 -176 l-20 -21 38 -37 38 -37 37 38 37 38 0 195 c0 177 2 197 18 212
24 22 52 22 53 0 0 -10 0 -98 0 -197 0 -143 -3 -182 -15 -195 -13 -14 -11 -20
17 -53 l33 -38 39 34 c38 33 39 35 22 54 -15 16 -17 41 -17 183 l0 164 28 33
c16 18 37 32 50 32 22 0 22 0 22 -190 l0 -190 28 -28 c41 -42 102 -85 110 -77
3 3 2 9 -4 13 -5 4 -21 22 -34 41 -23 33 -24 39 -23 234 0 159 3 202 14 211
45 35 40 41 -33 38 -69 -4 -72 -5 -114 -49 -35 -36 -44 -41 -44 -25 0 11 7 25
16 32 8 8 19 20 24 29 7 14 0 16 -58 13 -64 -3 -69 -5 -114 -50 l-48 -46 0 33
c0 25 4 32 15 27 22 -8 18 1 -7 18 -13 8 -50 18 -83 21 -33 4 -68 11 -77 16
-10 6 -18 6 -18 2z m186 -297 c-1 -96 -4 -178 -8 -182 -5 -4 -8 74 -8 174 0
100 4 182 8 182 5 0 8 -78 8 -174z"/>
<path d="M240 491 c-9 -23 -9 -33 2 -50 16 -26 19 -26 41 4 17 24 17 26 0 50
-23 31 -28 31 -43 -4z"/>
<path d="M241 373 c-20 -25 -21 -27 -4 -47 10 -12 19 -23 20 -25 1 -2 11 7 22
20 17 21 18 26 5 51 -8 16 -16 28 -19 28 -2 0 -13 -12 -24 -27z"/>
</g>
</svg>
